REM DIRINDEX 1\2\4,1\2\5,1\2\6,1\3\7,1\3\8,1\3\9,1\3\10
REM DIRNAME cjc058,folder01,folder02,folder03,folder04,folder05,folder06,folder07,folder08,folder09
TITLE ""
FILE "b_47.mp3" MP3
  TRACK 01 AUDIO
    TITLE "0:"
    INDEX 01 00:00:00
  TRACK 02 AUDIO
    TITLE "10:cjc058_4212"
    INDEX 01 00:00:09
  TRACK 03 AUDIO
    TITLE "0:"
    INDEX 01 00:02:55
  TRACK 04 AUDIO
    TITLE "7:cjc058_4213"
    INDEX 01 00:03:25
  TRACK 05 AUDIO
    TITLE "0:"
    INDEX 01 00:05:16
  TRACK 06 AUDIO
    TITLE "8:cjc058_4214"
    INDEX 01 00:05:48
  TRACK 07 AUDIO
    TITLE "0:"
    INDEX 01 00:07:56
  TRACK 08 AUDIO
    TITLE "9:cjc058_4215"
    INDEX 01 00:08:23
  TRACK 09 AUDIO
    TITLE "0:"
    INDEX 01 00:14:00
  TRACK 10 AUDIO
    TITLE "7:cjc058_4216"
    INDEX 01 00:15:09
  TRACK 11 AUDIO
    TITLE "0:"
    INDEX 01 00:16:53
  TRACK 12 AUDIO
    TITLE "8:cjc058_4217"
    INDEX 01 00:17:10
  TRACK 13 AUDIO
    TITLE "0:"
    INDEX 01 00:19:56
  TRACK 14 AUDIO
    TITLE "9:cjc058_4218"
    INDEX 01 00:20:22
  TRACK 15 AUDIO
    TITLE "0:"
    INDEX 01 00:24:49
  TRACK 16 AUDIO
    TITLE "7:cjc058_4219"
    INDEX 01 00:25:52
  TRACK 17 AUDIO
    TITLE "0:"
    INDEX 01 00:27:57
  TRACK 18 AUDIO
    TITLE "8:cjc058_4220"
    INDEX 01 00:28:13
  TRACK 19 AUDIO
    TITLE "0:"
    INDEX 01 00:30:59
  TRACK 20 AUDIO
    TITLE "9:cjc058_4221"
    INDEX 01 00:31:24
  TRACK 21 AUDIO
    TITLE "0:"
    INDEX 01 00:37:18
  TRACK 22 AUDIO
    TITLE "7:cjc058_4222"
    INDEX 01 00:38:22
  TRACK 23 AUDIO
    TITLE "0:"
    INDEX 01 00:39:43
  TRACK 24 AUDIO
    TITLE "8:cjc058_4223"
    INDEX 01 00:40:01
  TRACK 25 AUDIO
    TITLE "0:"
    INDEX 01 00:41:53
  TRACK 26 AUDIO
    TITLE "9:cjc058_4224"
    INDEX 01 00:42:21
  TRACK 27 AUDIO
    TITLE "0:"
    INDEX 01 00:45:51
  TRACK 28 AUDIO
    TITLE "7:cjc058_4225"
    INDEX 01 00:46:54
  TRACK 29 AUDIO
    TITLE "0:"
    INDEX 01 00:47:70
  TRACK 30 AUDIO
    TITLE "8:cjc058_4226"
    INDEX 01 00:48:28
  TRACK 31 AUDIO
    TITLE "0:"
    INDEX 01 00:51:15
  TRACK 32 AUDIO
    TITLE "9:cjc058_4227"
    INDEX 01 00:51:58
  TRACK 33 AUDIO
    TITLE "0:"
    INDEX 01 00:56:59
  TRACK 34 AUDIO
    TITLE "7:cjc058_4228"
    INDEX 01 00:57:62
  TRACK 35 AUDIO
    TITLE "0:"
    INDEX 01 00:59:08
  TRACK 36 AUDIO
    TITLE "8:cjc058_4229"
    INDEX 01 00:59:39
  TRACK 37 AUDIO
    TITLE "0:"
    INDEX 01 01:01:66
  TRACK 38 AUDIO
    TITLE "9:cjc058_4230"
    INDEX 01 01:02:34
  TRACK 39 AUDIO
    TITLE "0:"
    INDEX 01 01:06:34
  TRACK 40 AUDIO
    TITLE "7:cjc058_4231"
    INDEX 01 01:07:39
  TRACK 41 AUDIO
    TITLE "0:"
    INDEX 01 01:08:70
  TRACK 42 AUDIO
    TITLE "8:cjc058_4232"
    INDEX 01 01:09:28
  TRACK 43 AUDIO
    TITLE "0:"
    INDEX 01 01:11:56
  TRACK 44 AUDIO
    TITLE "9:cjc058_4233"
    INDEX 01 01:12:21
  TRACK 45 AUDIO
    TITLE "0:"
    INDEX 01 01:16:40
  TRACK 46 AUDIO
    TITLE "7:cjc058_4234"
    INDEX 01 01:17:45
  TRACK 47 AUDIO
    TITLE "0:"
    INDEX 01 01:19:42
  TRACK 48 AUDIO
    TITLE "8:cjc058_4235"
    INDEX 01 01:19:74
  TRACK 49 AUDIO
    TITLE "0:"
    INDEX 01 01:21:53
  TRACK 50 AUDIO
    TITLE "9:cjc058_4236"
    INDEX 01 01:22:23
  TRACK 51 AUDIO
    TITLE "0:"
    INDEX 01 01:28:00
  TRACK 52 AUDIO
    TITLE "7:cjc058_4237"
    INDEX 01 01:29:01
  TRACK 53 AUDIO
    TITLE "0:"
    INDEX 01 01:30:30
  TRACK 54 AUDIO
    TITLE "8:cjc058_4238"
    INDEX 01 01:30:64
  TRACK 55 AUDIO
    TITLE "0:"
    INDEX 01 01:32:53
  TRACK 56 AUDIO
    TITLE "9:cjc058_4239"
    INDEX 01 01:33:21
  TRACK 57 AUDIO
    TITLE "0:"
    INDEX 01 01:37:32
  TRACK 58 AUDIO
    TITLE "7:cjc058_4240"
    INDEX 01 01:38:40
  TRACK 59 AUDIO
    TITLE "0:"
    INDEX 01 01:39:55
  TRACK 60 AUDIO
    TITLE "8:cjc058_4241"
    INDEX 01 01:40:13
  TRACK 61 AUDIO
    TITLE "0:"
    INDEX 01 01:43:13
  TRACK 62 AUDIO
    TITLE "9:cjc058_4242"
    INDEX 01 01:43:52
  TRACK 63 AUDIO
    TITLE "0:"
    INDEX 01 01:48:14
  TRACK 64 AUDIO
    TITLE "7:cjc058_4243"
    INDEX 01 01:49:16
  TRACK 65 AUDIO
    TITLE "0:"
    INDEX 01 01:50:33
  TRACK 66 AUDIO
    TITLE "8:cjc058_4244"
    INDEX 01 01:50:64
  TRACK 67 AUDIO
    TITLE "0:"
    INDEX 01 01:52:04
  TRACK 68 AUDIO
    TITLE "9:cjc058_4245"
    INDEX 01 01:52:48
  TRACK 69 AUDIO
    TITLE "0:"
    INDEX 01 01:55:40
  TRACK 70 AUDIO
    TITLE "7:cjc058_4246"
    INDEX 01 01:56:41
  TRACK 71 AUDIO
    TITLE "0:"
    INDEX 01 01:57:57
  TRACK 72 AUDIO
    TITLE "8:cjc058_4247"
    INDEX 01 01:58:13
  TRACK 73 AUDIO
    TITLE "0:"
    INDEX 01 01:59:30
  TRACK 74 AUDIO
    TITLE "9:cjc058_4248"
    INDEX 01 01:59:73
  TRACK 75 AUDIO
    TITLE "0:"
    INDEX 01 02:05:27
  TRACK 76 AUDIO
    TITLE "7:cjc058_4249"
    INDEX 01 02:06:30
  TRACK 77 AUDIO
    TITLE "0:"
    INDEX 01 02:07:45
  TRACK 78 AUDIO
    TITLE "8:cjc058_4250"
    INDEX 01 02:08:01
  TRACK 79 AUDIO
    TITLE "0:"
    INDEX 01 02:09:03
  TRACK 80 AUDIO
    TITLE "9:cjc058_4251"
    INDEX 01 02:09:48
  TRACK 81 AUDIO
    TITLE "0:"
    INDEX 01 02:12:44
  TRACK 82 AUDIO
    TITLE "7:cjc058_4252"
    INDEX 01 02:13:48
  TRACK 83 AUDIO
    TITLE "0:"
    INDEX 01 02:15:11
  TRACK 84 AUDIO
    TITLE "8:cjc058_4253"
    INDEX 01 02:15:43
  TRACK 85 AUDIO
    TITLE "0:"
    INDEX 01 02:16:70
  TRACK 86 AUDIO
    TITLE "9:cjc058_4254"
    INDEX 01 02:17:38
  TRACK 87 AUDIO
    TITLE "0:"
    INDEX 01 02:21:51
  TRACK 88 AUDIO
    TITLE "7:cjc058_4255"
    INDEX 01 02:22:56
  TRACK 89 AUDIO
    TITLE "0:"
    INDEX 01 02:24:20
  TRACK 90 AUDIO
    TITLE "8:cjc058_4256"
    INDEX 01 02:24:51
  TRACK 91 AUDIO
    TITLE "0:"
    INDEX 01 02:25:67
  TRACK 92 AUDIO
    TITLE "9:cjc058_4257"
    INDEX 01 02:26:31
  TRACK 93 AUDIO
    TITLE "0:"
    INDEX 01 02:30:13
  TRACK 94 AUDIO
    TITLE "7:cjc058_4258"
    INDEX 01 02:31:20
  TRACK 95 AUDIO
    TITLE "0:"
    INDEX 01 02:32:49
  TRACK 96 AUDIO
    TITLE "8:cjc058_4259"
    INDEX 01 02:33:07
  TRACK 97 AUDIO
    TITLE "0:"
    INDEX 01 02:35:06
  TRACK 98 AUDIO
    TITLE "9:cjc058_4260"
    INDEX 01 02:35:45
  TRACK 99 AUDIO
    TITLE "0:"
    INDEX 01 02:38:65
  TRACK 100 AUDIO
    TITLE "7:cjc058_4261"
    INDEX 01 02:39:71
  TRACK 101 AUDIO
    TITLE "0:"
    INDEX 01 02:41:17
  TRACK 102 AUDIO
    TITLE "8:cjc058_4262"
    INDEX 01 02:41:48
  TRACK 103 AUDIO
    TITLE "0:"
    INDEX 01 02:42:63
  TRACK 104 AUDIO
    TITLE "9:cjc058_4263"
    INDEX 01 02:43:31
  TRACK 105 AUDIO
    TITLE "0:"
    INDEX 01 02:47:60
  TRACK 106 AUDIO
    TITLE "7:cjc058_4264"
    INDEX 01 02:48:62
  TRACK 107 AUDIO
    TITLE "0:"
    INDEX 01 02:50:27
  TRACK 108 AUDIO
    TITLE "8:cjc058_4265"
    INDEX 01 02:50:59
  TRACK 109 AUDIO
    TITLE "0:"
    INDEX 01 02:53:02
  TRACK 110 AUDIO
    TITLE "9:cjc058_4266"
    INDEX 01 02:53:45
  TRACK 111 AUDIO
    TITLE "0:"
    INDEX 01 02:58:33
  TRACK 112 AUDIO
    TITLE "7:cjc058_4267"
    INDEX 01 02:59:40
  TRACK 113 AUDIO
    TITLE "0:"
    INDEX 01 03:01:43
  TRACK 114 AUDIO
    TITLE "8:cjc058_4268"
    INDEX 01 03:02:01
  TRACK 115 AUDIO
    TITLE "0:"
    INDEX 01 03:04:71
  TRACK 116 AUDIO
    TITLE "9:cjc058_4269"
    INDEX 01 03:05:41
  TRACK 117 AUDIO
    TITLE "0:"
    INDEX 01 03:08:66
  TRACK 118 AUDIO
    TITLE "7:cjc058_4270"
    INDEX 01 03:09:68
  TRACK 119 AUDIO
    TITLE "0:"
    INDEX 01 03:11:29
  TRACK 120 AUDIO
    TITLE "8:cjc058_4271"
    INDEX 01 03:11:61
  TRACK 121 AUDIO
    TITLE "0:"
    INDEX 01 03:14:28
  TRACK 122 AUDIO
    TITLE "9:cjc058_4272"
    INDEX 01 03:14:69
  TRACK 123 AUDIO
    TITLE "0:"
    INDEX 01 03:19:58
  TRACK 124 AUDIO
    TITLE "7:cjc058_4273"
    INDEX 01 03:20:60
  TRACK 125 AUDIO
    TITLE "0:"
    INDEX 01 03:22:45
  TRACK 126 AUDIO
    TITLE "8:cjc058_4274"
    INDEX 01 03:23:03
  TRACK 127 AUDIO
    TITLE "0:"
    INDEX 01 03:24:50
  TRACK 128 AUDIO
    TITLE "9:cjc058_4275"
    INDEX 01 03:25:22
  TRACK 129 AUDIO
    TITLE "0:"
    INDEX 01 03:28:32
  TRACK 130 AUDIO
    TITLE "7:cjc058_4276"
    INDEX 01 03:29:35
  TRACK 131 AUDIO
    TITLE "0:"
    INDEX 01 03:30:56
  TRACK 132 AUDIO
    TITLE "8:cjc058_4277"
    INDEX 01 03:31:13
  TRACK 133 AUDIO
    TITLE "0:"
    INDEX 01 03:33:45
  TRACK 134 AUDIO
    TITLE "9:cjc058_4278"
    INDEX 01 03:34:15
  TRACK 135 AUDIO
    TITLE "0:"
    INDEX 01 03:38:32
  TRACK 136 AUDIO
    TITLE "7:cjc058_4279"
    INDEX 01 03:39:34
  TRACK 137 AUDIO
    TITLE "0:"
    INDEX 01 03:40:60
  TRACK 138 AUDIO
    TITLE "8:cjc058_4280"
    INDEX 01 03:41:17
  TRACK 139 AUDIO
    TITLE "0:"
    INDEX 01 03:42:32
  TRACK 140 AUDIO
    TITLE "9:cjc058_4281"
    INDEX 01 03:43:02
  TRACK 141 AUDIO
    TITLE "0:"
    INDEX 01 03:47:02
  TRACK 142 AUDIO
    TITLE "7:cjc058_4282"
    INDEX 01 03:48:07
  TRACK 143 AUDIO
    TITLE "0:"
    INDEX 01 03:50:02
  TRACK 144 AUDIO
    TITLE "8:cjc058_4283"
    INDEX 01 03:50:33
  TRACK 145 AUDIO
    TITLE "0:"
    INDEX 01 03:52:46
  TRACK 146 AUDIO
    TITLE "9:cjc058_4284"
    INDEX 01 03:53:14
  TRACK 147 AUDIO
    TITLE "0:"
    INDEX 01 03:57:67
  TRACK 148 AUDIO
    TITLE "7:cjc058_4285"
    INDEX 01 03:58:72
  TRACK 149 AUDIO
    TITLE "0:"
    INDEX 01 04:00:51
  TRACK 150 AUDIO
    TITLE "8:cjc058_4286"
    INDEX 01 04:01:08
  TRACK 151 AUDIO
    TITLE "0:"
    INDEX 01 04:03:32
  TRACK 152 AUDIO
    TITLE "9:cjc058_4287"
    INDEX 01 04:04:02
  TRACK 153 AUDIO
    TITLE "0:"
    INDEX 01 04:14:03
  TRACK 154 AUDIO
    TITLE "7:cjc058_4288"
    INDEX 01 04:15:06
  TRACK 155 AUDIO
    TITLE "0:"
    INDEX 01 04:16:23
  TRACK 156 AUDIO
    TITLE "8:cjc058_4289"
    INDEX 01 04:16:54
  TRACK 157 AUDIO
    TITLE "0:"
    INDEX 01 04:18:36
  TRACK 158 AUDIO
    TITLE "9:cjc058_4290"
    INDEX 01 04:19:02
  TRACK 159 AUDIO
    TITLE "0:"
    INDEX 01 04:24:01
  TRACK 160 AUDIO
    TITLE "7:cjc058_4291"
    INDEX 01 04:25:10
  TRACK 161 AUDIO
    TITLE "0:"
    INDEX 01 04:26:61
  TRACK 162 AUDIO
    TITLE "8:cjc058_4292"
    INDEX 01 04:27:17
  TRACK 163 AUDIO
    TITLE "0:"
    INDEX 01 04:29:35
  TRACK 164 AUDIO
    TITLE "9:cjc058_4293"
    INDEX 01 04:30:04
  TRACK 165 AUDIO
    TITLE "0:"
    INDEX 01 04:34:41
